#!OML:ASF H:\ManfredETheater\Project 1\Capture day 1\Session 1\subject.ASF
:FULLY-SPECIFIED
:DEGREES
141
root 1.36346 15.4228 -9.34018 -190.97 3.60362 176.384
lowerback 19.93 2.53256 0.465585
upperback 3.17455 4.29073 3.05302
thorax -7.9013 2.34435 1.8727
lowerneck -12.8301 -0.721255 -1.14065
upperneck 15.1426 -0.384087 -3.71349
head 6.73215 -0.682361 -1.05728
rclavicle 2.36554e-014 6.20208e-014
rhumerus -38.5094 1.90543 -86.5906
rradius 64.479
rwrist 1.01561
rhand -20.6722 5.28326
rfingers 7.12502
rthumb 5.69086 -24.6203
lclavicle 2.36554e-014 6.20208e-014
lhumerus -44.3124 17.4399 67.9214
lradius 99.7028
lwrist 14.8008
lhand -38.4827 -1.82132
lfingers 7.12502
lthumb -11.5048 27.843
rfemur -27.3184 3.11163 11.7722
rtibia 82.3622
rfoot 3.05739 -24.2289
rtoes 63.715
lfemur -29.8701 9.54372 -20.9221
ltibia 81.6594
lfoot -21.8165 -8.35153
ltoes -16.462
142
root 1.33451 15.3835 -9.59385 -190.506 3.38807 176.429
lowerback 19.6183 2.39417 0.487452
upperback 2.96855 4.06967 2.98007
thorax -7.94241 2.22184 1.85062
lowerneck -12.8908 -0.560794 -0.923611
upperneck 15.5376 -0.212796 -3.69112
head 6.87145 -0.598426 -1.07428
rclavicle -4.27387e-015 -6.20208e-014
rhumerus -37.1075 7.20979 -89.7318
rradius 66.6052
rwrist 4.78738
rhand -19.7004 6.69649
rfingers 7.12502
rthumb 6.629 -23.1798
lclavicle -4.27387e-015 -6.20208e-014
lhumerus -42.0902 15.6194 69.7017
lradius 96.5897
lwrist 15.9506
lhand -37.415 -3.04066
lfingers 7.12502
lthumb -10.475 26.6784
rfemur -28.3799 2.4612 11.3718
rtibia 84.3761
rfoot 4.63072 -22.4998
rtoes 63.3561
lfemur -29.7662 10.3469 -20.607
ltibia 82.493
lfoot -22.1825 -10.197
ltoes -15.8134
143
root 1.3115 15.3462 -9.84427 -189.967 2.95561 176.45
lowerback 19.3125 2.19701 0.39979
upperback 2.70118 3.74346 2.90048
thorax -8.05589 2.04916 1.9088
lowerneck -12.9168 -0.415915 -0.709744
upperneck 15.8413 -0.0661921 -3.65177
head 6.97554 -0.521494 -1.08614
rclavicle 4.11484e-014 6.20208e-014
rhumerus -36.0132 11.941 -92.1746
rradius 69.1859
rwrist 8.71923
rhand -18.9921 8.07764
rfingers 7.12502
rthumb 7.31274 -21.776
lclavicle 4.11484e-014 6.20208e-014
lhumerus -40.038 13.6225 71.156
lradius 93.7309
lwrist 16.241
lhand -36.515 -4.09343
lfingers 7.12502
lthumb -9.60669 25.6675
rfemur -29.6201 1.60068 10.894
rtibia 86.3527
rfoot 6.266 -20.591
rtoes 62.7487
lfemur -29.6865 10.928 -20.3685
ltibia 83.184
lfoot -22.5199 -11.9702
ltoes -14.9026
144
root 1.29184 15.311 -10.0924 -189.434 2.25147 176.443
lowerback 19.0802 1.91855 0.248401
upperback 2.41694 3.29904 2.80239
thorax -8.22437 1.82233 2.01004
lowerneck -12.9311 -0.303982 -0.493953
upperneck 16.0089 0.0335411 -3.58978
head 7.03315 -0.459262 -1.09369
rclavicle -8.24956e-015 3.49861e-014
rhumerus -35.1034 15.8624 -93.9936
rradius 72.0807
rwrist 12.4139
rhand -18.6199 9.29633
rfingers 7.12502
rthumb 7.67202 -20.5445
lclavicle -8.24956e-015 3.49861e-014
lhumerus -38.1255 11.545 72.3651
lradius 91.2087
lwrist 15.5484
lhand -35.7484 -4.83953
lfingers 7.12502
lthumb -8.86703 24.9542
rfemur -30.8873 0.450174 10.3398
rtibia 88.2483
rfoot 7.82835 -18.6097
rtoes 61.918
lfemur -29.5392 11.2245 -20.2282
ltibia 83.7295
lfoot -22.85 -13.6053
ltoes -13.708
145
root 1.27528 15.2785 -10.3395 -188.94 1.32595 176.427
lowerback 18.9289 1.57889 0.0626739
upperback 2.15081 2.77209 2.69068
thorax -8.41324 1.55989 2.13483
lowerneck -12.9563 -0.239316 -0.280574
upperneck 16.0207 0.0690195 -3.49754
head 7.04127 -0.418743 -1.09541
rclavicle -1.69961e-014 4.29375e-014
rhumerus -34.2953 18.9332 -95.2845
rradius 75.1572
rwrist 15.2911
rhand -18.6184 10.1587
rfingers 7.12502
rthumb 7.67345 -19.6821
lclavicle -1.69961e-014 4.29375e-014
lhumerus -36.3245 9.46376 73.3931
lradius 89.0799
lwrist 13.969
lhand -35.0453 -5.24124
lfingers 7.12502
lthumb -8.18852 24.5801
rfemur -32.1046 -0.943909 9.77378
rtibia 90.0261
rfoot 9.20459 -16.7394
rtoes 60.9543
lfemur -29.2769 11.2821 -20.147
ltibia 84.1304
lfoot -23.2144 -15.0573
ltoes -12.3014
146
root 1.26064 15.2486 -10.5867 -188.481 0.240538 176.452
lowerback 18.8352 1.19684 -0.0829849
upperback 1.91824 2.20404 2.57737
thorax -8.59179 1.28014 2.24467
lowerneck -13.0043 -0.234517 -0.0818516
upperneck 15.8835 0.0244225 -3.36424
head 7.00376 -0.407912 -1.08753
rclavicle -3.01159e-014 -4.77083e-014
rhumerus -33.5482 21.224 -96.124
rradius 78.2808
rwrist 16.8966
rhand -18.9533 10.5803
rfingers 7.12502
rthumb 7.35019 -19.272
lclavicle -3.01159e-014 -4.77083e-014
lhumerus -34.5968 7.43678 74.2912
lradius 87.3625
lwrist 11.799
lhand -34.3857 -5.29897
lfingers 7.12502
lthumb -7.55188 24.5462
rfemur -33.2439 -2.51563 9.29603
rtibia 91.6558
rfoot 10.3112 -15.1906
rtoes 59.9816
lfemur -28.8953 11.1545 -20.0567
ltibia 84.4019
lfoot -23.6829 -16.2699
ltoes -10.895
147
root 1.24653 15.2222 -10.8355 -188.053 -0.941011 176.534
lowerback 18.777 1.25631 0.00360602
upperback 1.70601 1.52126 2.47621
thorax -8.75538 0.62081 2.31402
lowerneck -13.0831 -0.292145 0.0894232
upperneck 15.6221 -0.103221 -3.17989
head 6.93 -0.42976 -1.06541
rclavicle -6.36111e-015 -3.65764e-014
rhumerus -32.8261 22.8494 -96.5794
rradius 81.3318
rwrist 16.9454
rhand -19.5931 10.5382
rfingers 7.12502
rthumb 6.73264 -19.3348
lclavicle -6.36111e-015 -3.65764e-014
lhumerus -32.9024 5.51366 75.0942
lradius 86.0365
lwrist 9.44334
lhand -33.7531 -5.19478
lfingers 7.12502
lthumb -6.94124 24.6714
rfemur -34.2955 -4.19807 8.9578
rtibia 93.1181
rfoot 11.0673 -14.1815
rtoes 59.1387
lfemur -28.3872 10.8871 -19.9302
ltibia 84.5452
lfoot -24.2905 -17.2306
ltoes -9.51653
148
root 1.23317 15.1993 -11.0855 -187.634 -2.15235 176.657
lowerback 18.729 0.840262 -0.0246605
upperback 1.54941 0.980197 2.36773
thorax -8.87554 0.372009 2.3529
lowerneck -13.1948 -0.409195 0.218443
upperneck 15.2743 -0.309008 -2.93913
head 6.83315 -0.484681 -1.02498
rclavicle -3.77691e-015 -1.43125e-014
rhumerus -32.1219 23.9216 -96.6943
rradius 84.2286
rwrist 15.489
rhand -20.5171 10.1284
rfingers 7.12502
rthumb 5.84057 -19.7711
lclavicle -3.77691e-015 -1.43125e-014
lhumerus -31.2241 3.71136 75.8325
lradius 85.0823
lwrist 7.34706
lhand -33.1055 -5.10875
lfingers 7.12502
lthumb -6.31605 24.7771
rfemur -35.3018 -5.91579 8.78221
rtibia 94.4112
rfoot 11.4751 -13.8778
rtoes 58.5164
lfemur -27.7712 10.5297 -19.7711
ltibia 84.5625
lfoot -25.072 -17.9232
ltoes -8.28422
149
root 1.22069 15.1801 -11.3367 -187.198 -3.32064 176.799
lowerback 18.6743 0.467258 -0.0393959
upperback 1.4131 0.496133 2.2668
thorax -8.97297 0.14896 2.37747
lowerneck -13.3292 -0.577963 0.296062
upperneck 14.8739 -0.581925 -2.64315
head 6.72305 -0.570061 -0.9645
rclavicle -8.94531e-016 1.27222e-014
rhumerus -31.4401 24.5068 -96.5067
rradius 86.9131
rwrist 12.8779
rhand -21.7369 9.53232
rfingers 7.12502
rthumb 4.66287 -20.3964
lclavicle -8.94531e-016 1.27222e-014
lhumerus -29.5348 2.05612 76.5352
lradius 84.4503
lwrist 5.83785
lhand -32.432 -5.16533
lfingers 7.12502
lthumb -5.66585 24.7389
rfemur -36.3337 -7.58904 8.77928
rtibia 95.5372
rfoot 11.6089 -14.3639
rtoes 58.1609
lfemur -27.0687 10.133 -19.5978
ltibia 84.4525
lfoot -26.0342 -18.3479
ltoes -7.24299
150
root 1.20941 15.1645 -11.5894 -186.73 -4.40659 176.907
lowerback 18.6055 0.152942 -0.114443
upperback 1.28947 0.0759157 2.16802
thorax -9.05266 -0.0414763 2.42191
lowerneck -13.4858 -0.780049 0.330475
upperneck 14.452 -0.896495 -2.30987
head 6.61056 -0.676232 -0.889126
rclavicle 6.4605e-015 -5.88403e-014
rhumerus -30.7852 24.6525 -96.0567
rradius 89.3307
rwrist 9.67021
rhand -23.1795 8.95608
rfingers 7.12502
rthumb 3.2698 -20.9986
lclavicle 6.4605e-015 -5.88403e-014
lhumerus -27.8162 0.579815 77.2201
lradius 84.0872
lwrist 5.06554
lhand -31.7423 -5.40178
lfingers 7.12502
lthumb -4.9999 24.5192
rfemur -37.4344 -9.16952 8.90522
rtibia 96.4973
rfoot 11.5195 -15.628
rtoes 58.0194
lfemur -26.2874 9.71442 -19.4701
ltibia 84.2096
lfoot -27.1648 -18.4852
ltoes -6.48452
151
root 1.1994 15.1516 -11.8424 -186.202 -5.34458 176.986
lowerback 18.5204 -0.0896813 -0.261491
upperback 1.1608 -0.262987 2.08039
thorax -9.13214 -0.189365 2.49809
lowerneck -13.6489 -0.998573 0.324836
upperneck 14.025 -1.2298 -1.94809
head 6.49909 -0.793461 -0.800204
rclavicle 4.57205e-015 4.13472e-014
rhumerus -30.1772 24.3787 -95.3916
rradius 91.433
rwrist 6.54693
rhand -24.6694 8.56292
rfingers 7.12502
rthumb 1.83083 -21.409
lclavicle 4.57205e-015 4.13472e-014
lhumerus -26.0691 -0.684756 77.8985
lradius 83.9384
lwrist 4.99196
lhand -31.0695 -5.80921
lfingers 7.12502
lthumb -4.35022 24.1261
rfemur -38.6911 -10.5781 9.1908
rtibia 97.2955
rfoot 11.2584 -17.5741
rtoes 57.9884
lfemur -25.4728 9.31693 -19.3805
ltibia 83.8479
lfoot -28.4356 -18.3338
ltoes -6.08556
152
root 1.18982 15.1414 -12.0961 -185.619 -6.15187 177.01
lowerback 18.4312 -0.272407 -0.498552
upperback 1.02911 -0.540882 1.99512
thorax -9.21386 -0.303794 2.61216
lowerneck -13.8228 -1.21589 0.296574
upperneck 13.5965 -1.55752 -1.5808
head 6.39077 -0.911075 -0.705794
rclavicle -1.799e-014 -6.36111e-015
rhumerus -29.6339 23.7045 -94.5653
rradius 93.1767
rwrist 4.09886
rhand -26.0436 8.35992
rfingers 7.12502
rthumb 0.503633 -21.6192
lclavicle -1.799e-014 -6.36111e-015
lhumerus -24.2952 -1.71637 78.576
lradius 83.9637
lwrist 5.4274
lhand -30.4359 -6.32034
lfingers 7.12502
lthumb -3.73838 23.6266
rfemur -40.1071 -11.8207 9.5874
rtibia 97.9211
rfoot 10.8555 -19.9942
rtoes 57.9717
lfemur -24.6269 8.90089 -19.3786
ltibia 83.3718
lfoot -29.8064 -17.8713
ltoes -6.09973
153
root 1.18113 15.1328 -12.3496 -184.973 -6.79561 176.963
lowerback 18.3451 -0.387746 -0.849114
upperback 0.891274 -0.752794 1.90837
thorax -9.3046 -0.381052 2.77234
lowerneck -14.0061 -1.42205 0.253029
upperneck 13.1636 -1.86612 -1.21759
head 6.28451 -1.02279 -0.608885
rclavicle -1.82882e-014 -3.73715e-014
rhumerus -29.1658 22.6716 -93.6325
rradius 94.518
rwrist 2.69856
rhand -27.1974 8.22312
rfingers 7.12502
rthumb -0.610762 -21.7558
lclavicle -1.82882e-014 -3.73715e-014
lhumerus -22.504 -2.51448 79.253
lradius 84.1303
lwrist 6.13025
lhand -29.8966 -6.86068
lfingers 7.12502
lthumb -3.21765 23.0948
rfemur -41.7165 -12.8402 10.0711
rtibia 98.3699
rfoot 10.3047 -22.6411
rtoes 57.8841
lfemur -23.7732 8.49225 -19.4848
ltibia 82.799
lfoot -31.2154 -17.102
ltoes -6.49818
154
root 1.17238 15.1252 -12.6027 -184.273 -7.3353 176.858
lowerback 18.2752 -0.467657 -1.27277
upperback 0.749104 -0.934104 1.81495
thorax -9.40797 -0.439873 2.95949
lowerneck -14.1968 -1.60536 0.212196
upperneck 12.7123 -2.14054 -0.875432
head 6.17501 -1.12155 -0.516277
rclavicle 1.37161e-014 4.77083e-015
rhumerus -28.7829 21.3406 -92.6396
rradius 95.4231
rwrist 2.414
rhand -28.0828 8.0586
rfingers 7.12502
rthumb -1.4659 -21.9161
lclavicle 1.37161e-014 4.77083e-015
lhumerus -20.6993 -3.07997 79.9306
lradius 84.4092
lwrist 6.8321
lhand -29.4973 -7.36719
lfingers 7.12502
lthumb -2.83201 22.5938
rfemur -43.4936 -13.6784 10.6146
rtibia 98.6313
rfoot 9.57635 -25.2562
rtoes 57.6722
lfemur -22.931 8.03107 -19.7036
ltibia 82.1475
lfoot -32.6009 -16.0369
ltoes -7.28013
